<svg width="48" height="48" viewBox="0 0 48 48" fill="none" xmlns="http://www.w3.org/2000/svg">
  <path d="M24 37.5C23.2 37.5 22.4 37.3 21.8 36.8C14.8 31.5 9.5 26.9 9.5 19.9C9.5 15.1 13.4 11.2 18.2 11.2C20.4 11.2 22.5 12 24 13.6C25.5 12 27.6 11.2 29.8 11.2C34.6 11.2 38.5 15.1 38.5 19.9C38.5 26.9 33.2 31.5 26.2 36.8C25.6 37.3 24.8 37.5 24 37.5Z" stroke="#8E7F87" stroke-width="2" stroke-linecap="round" stroke-linejoin="round"/>
  <path d="M15.5 23.5C17 26 18.8 27.9 21.6 30.2" stroke="#C0AFB7" stroke-width="2" stroke-linecap="round"/>
  <path d="M25.8 30.2C28.7 27.8 30.5 26 32 23.5" stroke="#C0AFB7" stroke-width="2" stroke-linecap="round"/>
</svg>
