<svg width="64" height="64" viewBox="0 0 64 64" fill="none" xmlns="http://www.w3.org/2000/svg">
  <path d="M32 51.2C31.1 51.2 30.3 50.9 29.6 50.4C20.8 43.8 13.6 37.4 13.6 27.8C13.6 21.4 18.7 16.2 25.1 16.2C28 16.2 30.8 17.3 32.8 19.2L32 20L31.2 19.2C29.2 17.3 26.4 16.2 23.5 16.2C17.1 16.2 12 21.4 12 27.8C12 37.4 19.2 43.8 28 50.4C28.7 50.9 29.5 51.2 30.4 51.2H32Z" fill="url(#paint0_linear_101_2)"/>
  <path d="M32 51.2C32.9 51.2 33.7 50.9 34.4 50.4C43.2 43.8 50.4 37.4 50.4 27.8C50.4 21.4 45.3 16.2 38.9 16.2C36 16.2 33.2 17.3 31.2 19.2L32 20L32.8 19.2C34.8 17.3 37.6 16.2 40.5 16.2C46.9 16.2 52 21.4 52 27.8C52 37.4 44.8 43.8 36 50.4C35.3 50.9 34.5 51.2 33.6 51.2H32Z" fill="url(#paint1_linear_101_2)"/>
  <path d="M32 50.5C31.2 50.5 30.5 50.3 29.8 49.8C21.2 43.3 14.4 37.2 14.4 27.9C14.4 22 19.2 17.2 25.1 17.2C27.9 17.2 30.5 18.3 32.4 20.2C34.3 18.3 36.9 17.2 39.7 17.2C45.6 17.2 50.4 22 50.4 27.9C50.4 37.2 43.6 43.3 35 49.8C34.3 50.3 33.6 50.5 32.8 50.5H32Z" stroke="url(#paint2_linear_101_2)" stroke-width="2" stroke-linecap="round" stroke-linejoin="round"/>
  <defs>
    <linearGradient id="paint0_linear_101_2" x1="12" y1="33.7" x2="32" y2="33.7" gradientUnits="userSpaceOnUse">
      <stop stop-color="#C9B0BA" stop-opacity="0.2"/>
      <stop offset="1" stop-color="#E4CDD6" stop-opacity="0.2"/>
    </linearGradient>
    <linearGradient id="paint1_linear_101_2" x1="32" y1="33.7" x2="52" y2="33.7" gradientUnits="userSpaceOnUse">
      <stop stop-color="#E4CDD6" stop-opacity="0.2"/>
      <stop offset="1" stop-color="#C9B0BA" stop-opacity="0.2"/>
    </linearGradient>
    <linearGradient id="paint2_linear_101_2" x1="14.4" y1="17.2" x2="50.4" y2="50.5" gradientUnits="userSpaceOnUse">
      <stop stop-color="#B89DA9"/>
      <stop offset="1" stop-color="#D6BCC7"/>
    </linearGradient>
  </defs>
</svg>
